# xmcd
#
# Track frame offsets:
#	150
#	11809
#	30835
#	49371
#	68561
#	85829
#	99179
#	111953
#	122756
#	141860
#	158039
#	175256
#	194433
#	212275
#
# Disc length: 3035 seconds
#
# Revision: 1
# Processed by: cddbd v1.5.2PL0 Copyright (c) Steve Scherf et al.
# Submitted via: audiograbber 1.83.01
#
DISCID=b20bd90e
DTITLE=Bellamy Brothers - By Request
DYEAR=2003
DGENRE=Country
TTITLE0=Don't Give A Rip
TTITLE1=What I Used To Do All Night
TTITLE2=Beggars And Heroes
TTITLE3=Diesel Cafe
TTITLE4=Tragedy
TTITLE5=Blue California
TTITLE6=Like She's Not Yours
TTITLE7=Rock-A-Billy
TTITLE8=Let's Roll America
TTITLE9=Crazy Old World
TTITLE10=More And More And More
TTITLE11=Take Me Home
TTITLE12=Life's A Beach
TTITLE13=I Wish I Had You
EXTD=
EXTT0=
EXTT1=
EXTT2=
EXTT3=
EXTT4=
EXTT5=
EXTT6=
EXTT7=
EXTT8=
EXTT9=
EXTT10=
EXTT11=
EXTT12=
EXTT13=
PLAYORDER=
